<?xml version="1.0" encoding="utf-8"?>
<!-- Generator: Adobe Illustrator 21.0.2, SVG Export Plug-In . SVG Version: 6.00 Build 0)  -->
<svg xmlns="http://www.w3.org/2000/svg" xmlns:xlink="http://www.w3.org/1999/xlink" version="1.1" id="Layer_1" x="0px" y="0px" viewBox="0 0 48 48" style="enable-background:new 0 0 48 48;" xml:space="preserve" width="48px" height="48px">
<g id="surface1">
	<path style="fill:#78909C;" d="M10,44c-0.6,0-1-0.4-1-1s0.4-1,1-1c0.5,0,1-0.1,1-1.1V37c0-0.6,0.4-1,1-1s1,0.4,1,1v3.9   C13,42.8,11.8,44,10,44z"/>
	<path style="fill:#CFD8DC;" d="M40.7,15c0.2-0.6,0.3-1.3,0.3-2c0-3.3-2.7-6-6-6c-1.7,0-3.2,0.7-4.3,1.9C29.8,6,27.1,4,24,4   c-3.2,0-5.8,2.1-6.7,5c-0.9-0.6-2.1-1-3.3-1c-3.3,0-6,2.7-6,6c0,0.3,0,0.7,0.1,1H40.7z"/>
	<path style="fill:#32C24D;" d="M6,13h36v22H6V13z"/>
	<path style="fill:#FFFFFF;" d="M26,24c0,1.1-0.9,2-2,2s-2-0.9-2-2s0.9-2,2-2S26,22.9,26,24z"/>
	<path style="fill:#FFFFFF;" d="M34,24c0,1.1-0.9,2-2,2s-2-0.9-2-2s0.9-2,2-2S34,22.9,34,24z"/>
	<path style="fill:#FFFFFF;" d="M18,24c0,1.1-0.9,2-2,2s-2-0.9-2-2s0.9-2,2-2S18,22.9,18,24z"/>
	<rect x="11" y="35" style="fill:#546E7A;" width="2" height="2"/>
	<path style="fill:#78909C;" d="M16,44c-0.6,0-1-0.4-1-1s0.4-1,1-1c0.5,0,1-0.1,1-1.1V37c0-0.6,0.4-1,1-1s1,0.4,1,1v3.9   C19,42.8,17.8,44,16,44z"/>
	<rect x="17" y="35" style="fill:#546E7A;" width="2" height="2"/>
	<path style="fill:#78909C;" d="M29,44c-0.6,0-1-0.4-1-1s0.4-1,1-1c0.5,0,1-0.1,1-1.1V37c0-0.6,0.4-1,1-1s1,0.4,1,1v3.9   C32,42.8,30.8,44,29,44z"/>
	<rect x="30" y="35" style="fill:#546E7A;" width="2" height="2"/>
	<path style="fill:#78909C;" d="M35,44c-0.6,0-1-0.4-1-1s0.4-1,1-1c0.5,0,1-0.1,1-1.1V37c0-0.6,0.4-1,1-1s1,0.4,1,1v3.9   C38,42.8,36.8,44,35,44z"/>
	<rect x="36" y="35" style="fill:#546E7A;" width="2" height="2"/>
</g>
</svg>
